<svg xmlns="http://www.w3.org/2000/svg" style="display: none;">
  <symbol id="not-favorite" viewBox="0 0 16 15">
    <path fill="#F2F4F7" d="m8 2.748-.717-.737C5.6.281 2.513.878 1.4 3.053c-.523 1.023-.641 2.5.314 4.385.92 1.815 2.834 3.989 6.286 6.357 3.452-2.368 5.365-4.542 6.286-6.357.955-1.886.838-3.362.314-4.385C13.486.878 10.4.28 8.717 2.01L8 2.748ZM8 15C-7.333 4.868 3.279-3.04 7.824 1.143c.06.055.119.112.176.171a3 3 0 0 1 .176-.17C12.72-3.042 23.333 4.867 8 15Z"/>
  </symbol>

  <symbol id="favorite" viewBox="0 0 16 15">
    <path fill="#3470FF" fill-rule="evenodd" d="M8 1.314C12.438-3.248 23.534 4.735 8 15-7.534 4.736 3.562-3.248 8 1.314Z" clip-rule="evenodd"/>
  </symbol>

  <symbol id="calendar" viewBox="0 0 16 16">
    <path d="M3.5 0C3.63261 0 3.75979 0.0526784 3.85355 0.146447C3.94732 0.240215 4 0.367392 4 0.5V1H12V0.5C12 0.367392 12.0527 0.240215 12.1464 0.146447C12.2402 0.0526784 12.3674 0 12.5 0C12.6326 0 12.7598 0.0526784 12.8536 0.146447C12.9473 0.240215 13 0.367392 13 0.5V1H14C14.5304 1 15.0391 1.21071 15.4142 1.58579C15.7893 1.96086 16 2.46957 16 3V14C16 14.5304 15.7893 15.0391 15.4142 15.4142C15.0391 15.7893 14.5304 16 14 16H2C1.46957 16 0.960859 15.7893 0.585786 15.4142C0.210714 15.0391 0 14.5304 0 14V3C0 2.46957 0.210714 1.96086 0.585786 1.58579C0.960859 1.21071 1.46957 1 2 1H3V0.5C3 0.367392 3.05268 0.240215 3.14645 0.146447C3.24021 0.0526784 3.36739 0 3.5 0ZM2 2C1.73478 2 1.48043 2.10536 1.29289 2.29289C1.10536 2.48043 1 2.73478 1 3V14C1 14.2652 1.10536 14.5196 1.29289 14.7071C1.48043 14.8946 1.73478 15 2 15H14C14.2652 15 14.5196 14.8946 14.7071 14.7071C14.8946 14.5196 15 14.2652 15 14V3C15 2.73478 14.8946 2.48043 14.7071 2.29289C14.5196 2.10536 14.2652 2 14 2H2Z" fill="#101828"/>
    <path d="M2.5 4C2.5 3.86739 2.55268 3.74021 2.64645 3.64645C2.74021 3.55268 2.86739 3.5 3 3.5H13C13.1326 3.5 13.2598 3.55268 13.3536 3.64645C13.4473 3.74021 13.5 3.86739 13.5 4V5C13.5 5.13261 13.4473 5.25979 13.3536 5.35355C13.2598 5.44732 13.1326 5.5 13 5.5H3C2.86739 5.5 2.74021 5.44732 2.64645 5.35355C2.55268 5.25979 2.5 5.13261 2.5 5V4ZM11 7.5C11 7.36739 11.0527 7.24021 11.1464 7.14645C11.2402 7.05268 11.3674 7 11.5 7H12.5C12.6326 7 12.7598 7.05268 12.8536 7.14645C12.9473 7.24021 13 7.36739 13 7.5V8.5C13 8.63261 12.9473 8.75979 12.8536 8.85355C12.7598 8.94732 12.6326 9 12.5 9H11.5C11.3674 9 11.2402 8.94732 11.1464 8.85355C11.0527 8.75979 11 8.63261 11 8.5V7.5ZM8 7.5C8 7.36739 8.05268 7.24021 8.14645 7.14645C8.24021 7.05268 8.36739 7 8.5 7H9.5C9.63261 7 9.75979 7.05268 9.85355 7.14645C9.94732 7.24021 10 7.36739 10 7.5V8.5C10 8.63261 9.94732 8.75979 9.85355 8.85355C9.75979 8.94732 9.63261 9 9.5 9H8.5C8.36739 9 8.24021 8.94732 8.14645 8.85355C8.05268 8.75979 8 8.63261 8 8.5V7.5ZM3 10.5C3 10.3674 3.05268 10.2402 3.14645 10.1464C3.24021 10.0527 3.36739 10 3.5 10H4.5C4.63261 10 4.75979 10.0527 4.85355 10.1464C4.94732 10.2402 5 10.3674 5 10.5V11.5C5 11.6326 4.94732 11.7598 4.85355 11.8536C4.75979 11.9473 4.63261 12 4.5 12H3.5C3.36739 12 3.24021 11.9473 3.14645 11.8536C3.05268 11.7598 3 11.6326 3 11.5V10.5ZM6 10.5C6 10.3674 6.05268 10.2402 6.14645 10.1464C6.24021 10.0527 6.36739 10 6.5 10H7.5C7.63261 10 7.75979 10.0527 7.85355 10.1464C7.94732 10.2402 8 10.3674 8 10.5V11.5C8 11.6326 7.94732 11.7598 7.85355 11.8536C7.75979 11.9473 7.63261 12 7.5 12H6.5C6.36739 12 6.24021 11.9473 6.14645 11.8536C6.05268 11.7598 6 11.6326 6 11.5V10.5Z" fill="#101828"/>
  </symbol>

  <symbol id="car" viewBox="0 0 16 12">
    <path d="M4 7C4 7.26522 3.89464 7.51957 3.70711 7.70711C3.51957 7.89464 3.26522 8 3 8C2.73478 8 2.48043 7.89464 2.29289 7.70711C2.10536 7.51957 2 7.26522 2 7C2 6.73478 2.10536 6.48043 2.29289 6.29289C2.48043 6.10536 2.73478 6 3 6C3.26522 6 3.51957 6.10536 3.70711 6.29289C3.89464 6.48043 4 6.73478 4 7ZM14 7C14 7.26522 13.8946 7.51957 13.7071 7.70711C13.5196 7.89464 13.2652 8 13 8C12.7348 8 12.4804 7.89464 12.2929 7.70711C12.1054 7.51957 12 7.26522 12 7C12 6.73478 12.1054 6.48043 12.2929 6.29289C12.4804 6.10536 12.7348 6 13 6C13.2652 6 13.5196 6.10536 13.7071 6.29289C13.8946 6.48043 14 6.73478 14 7ZM6 6C5.73478 6 5.48043 6.10536 5.29289 6.29289C5.10536 6.48043 5 6.73478 5 7C5 7.26522 5.10536 7.51957 5.29289 7.70711C5.48043 7.89464 5.73478 8 6 8H10C10.2652 8 10.5196 7.89464 10.7071 7.70711C10.8946 7.51957 11 7.26522 11 7C11 6.73478 10.8946 6.48043 10.7071 6.29289C10.5196 6.10536 10.2652 6 10 6H6ZM4.862 2.276L3.906 4.19C3.86691 4.27065 3.84977 4.36018 3.8563 4.44957C3.86283 4.53896 3.8928 4.62505 3.94319 4.69917C3.99358 4.77329 4.06262 4.83282 4.14334 4.87176C4.22406 4.9107 4.31362 4.92769 4.403 4.921C5.313 4.848 6.753 4.751 8 4.751C9.247 4.751 10.688 4.848 11.597 4.921C11.6864 4.92769 11.7759 4.9107 11.8567 4.87176C11.9374 4.83282 12.0064 4.77329 12.0568 4.69917C12.1072 4.62505 12.1372 4.53896 12.1437 4.44957C12.1502 4.36018 12.1331 4.27065 12.094 4.19L11.138 2.277C11.0966 2.19387 11.0328 2.12391 10.9539 2.07499C10.8749 2.02606 10.7839 2.0001 10.691 2H5.309C5.21622 2 5.12527 2.02582 5.04633 2.07456C4.96739 2.12331 4.90356 2.19305 4.862 2.276Z" fill="#101828"/>
    <path d="M2.52 1.515C2.7129 1.065 3.0337 0.681548 3.44257 0.412225C3.85144 0.142902 4.3304 -0.00043446 4.82 9.89209e-07H11.182C12.182 9.89209e-07 13.086 0.596001 13.48 1.515L14.272 3.363C14.347 3.538 14.482 3.682 14.652 3.767C15.152 4.017 15.507 4.482 15.617 5.029L15.952 6.708C15.9853 6.86933 16.0017 7.03267 16.001 7.198V7.611C16.001 8.425 15.611 9.154 15.001 9.608V11.5C15.001 11.6326 14.9483 11.7598 14.8546 11.8536C14.7608 11.9473 14.6336 12 14.501 12H12.501C12.3684 12 12.2412 11.9473 12.1474 11.8536C12.0537 11.7598 12.001 11.6326 12.001 11.5V10.162C10.709 10.21 9.256 10.25 8.001 10.25C6.746 10.25 5.293 10.21 4.001 10.162V11.5C4.001 11.6326 3.94832 11.7598 3.85455 11.8536C3.76078 11.9473 3.63361 12 3.501 12H1.501C1.36839 12 1.24121 11.9473 1.14745 11.8536C1.05368 11.7598 1.001 11.6326 1.001 11.5V9.608C0.390999 9.154 0.000999451 8.425 0.000999451 7.611V7.198C0.00116728 7.03345 0.0175802 6.86932 0.0499995 6.708L0.384999 5.028C0.494999 4.482 0.849999 4.016 1.349 3.767C1.52016 3.68215 1.65531 3.53884 1.73 3.363L2.522 1.515H2.52ZM4.82 1C4.5263 1.00002 4.23906 1.08626 3.99392 1.24803C3.74878 1.4098 3.55652 1.63997 3.441 1.91L2.649 3.757C2.48102 4.15006 2.17865 4.47051 1.796 4.661C1.68579 4.71563 1.58966 4.79493 1.51508 4.89275C1.44051 4.99056 1.38949 5.10426 1.366 5.225L1.03 6.904C1.01035 7.00077 1.0003 7.09925 0.999999 7.198V7.611C0.999999 8.407 1.62 9.059 2.408 9.095C3.963 9.165 6.194 9.25 8 9.25C9.806 9.25 12.037 9.166 13.592 9.095C13.9726 9.07647 14.3314 8.91185 14.5937 8.63542C14.8559 8.35899 15.0015 7.99205 15 7.611V7.198C15 7.09933 14.99 7.00133 14.97 6.904L14.635 5.224C14.6114 5.10344 14.5603 4.98994 14.4857 4.89231C14.4111 4.79468 14.3151 4.71553 14.205 4.661C13.8223 4.47051 13.52 4.15006 13.352 3.757L12.56 1.909C12.4443 1.639 12.2518 1.40893 12.0065 1.24734C11.7611 1.08574 11.4738 0.99974 11.18 1H4.82Z" fill="#101828"/>
  </symbol>

  <symbol id="location" viewBox="0 0 12 15">
    <path  d="M9.53 8.381c-.49.996-1.156 1.988-1.837 2.878a30.003 30.003 0 0 1-2.068 2.41 30.002 30.002 0 0 1-2.068-2.41c-.68-.89-1.346-1.882-1.838-2.878C1.222 7.375.937 6.433.937 5.625a4.687 4.687 0 1 1 9.376 0c0 .808-.286 1.75-.782 2.756ZM5.626 15s5.625-5.33 5.625-9.375a5.625 5.625 0 1 0-11.25 0C0 9.669 5.625 15 5.625 15Z" fill="#101828"/>
    <path  d="M5.625 7.5a1.875 1.875 0 1 1 0-3.75 1.875 1.875 0 0 1 0 3.75Zm0 .938a2.813 2.813 0 1 0 0-5.626 2.813 2.813 0 0 0 0 5.626Z" fill="#101828"/>
 </symbol>
 <symbol id="icon-star" viewBox="0 0 16 16">
      <path fill="#101828" d="M8 4.754a3.246 3.246 0 1 0 0 6.492 3.246 3.246 0 0 0 0-6.492ZM5.754 8a2.246 2.246 0 1 1 4.492 0 2.246 2.246 0 0 1-4.492 0Z"/>
      <path fill="#101828" d="M9.796 1.343c-.527-1.79-3.065-1.79-3.592 0l-.094.319a.873.873 0 0 1-1.255.52l-.292-.16c-1.64-.892-3.433.902-2.54 2.541l.159.292a.873.873 0 0 1-.52 1.255l-.319.094c-1.79.527-1.79 3.065 0 3.592l.319.094a.873.873 0 0 1 .52 1.255l-.16.292c-.892 1.64.901 3.434 2.541 2.54l.292-.159a.873.873 0 0 1 1.255.52l.094.319c.527 1.79 3.065 1.79 3.592 0l.094-.319a.873.873 0 0 1 1.255-.52l.292.16c1.64.893 3.434-.902 2.54-2.541l-.159-.292a.873.873 0 0 1 .52-1.255l.319-.094c1.79-.527 1.79-3.065 0-3.592l-.319-.094a.873.873 0 0 1-.52-1.255l.16-.292c.893-1.64-.902-3.433-2.541-2.54l-.292.159a.873.873 0 0 1-1.255-.52l-.094-.319Zm-2.633.283c.246-.835 1.428-.835 1.674 0l.094.319a1.873 1.873 0 0 0 2.693 1.115l.291-.16c.764-.415 1.6.42 1.184 1.185l-.159.292a1.872 1.872 0 0 0 1.116 2.692l.318.094c.835.246.835 1.428 0 1.674l-.319.094a1.873 1.873 0 0 0-1.115 2.693l.16.291c.415.764-.42 1.6-1.185 1.184l-.291-.159a1.872 1.872 0 0 0-2.693 1.116l-.094.318c-.246.835-1.428.835-1.674 0l-.094-.319a1.873 1.873 0 0 0-2.692-1.115l-.292.16c-.764.415-1.6-.42-1.184-1.185l.159-.291A1.874 1.874 0 0 0 1.945 8.93l-.319-.094c-.835-.246-.835-1.428 0-1.674l.319-.094A1.873 1.873 0 0 0 3.06 4.377l-.16-.292c-.415-.764.42-1.6 1.185-1.184l.292.159a1.873 1.873 0 0 0 2.692-1.115l.094-.319Z"/>
    </symbol>
  <symbol id="icon-document" viewBox="0 0 16 16">
      <path fill="#101828" d="M3 2.5a.5.5 0 0 1 .5-.5h5a.5.5 0 0 1 .5.5v5a.5.5 0 0 1-.5.5h-5a.5.5 0 0 1-.5-.5v-5Z"/>
      <path fill="#101828" d="M1 2a2 2 0 0 1 2-2h6a2 2 0 0 1 2 2v8a2 2 0 0 1 2 2v.5a.5.5 0 0 0 1 0V8h-.5a.5.5 0 0 1-.5-.5V4.375a.5.5 0 0 1 .5-.5h1.495c-.011-.476-.053-.894-.201-1.222a.97.97 0 0 0-.394-.458c-.184-.11-.464-.195-.9-.195a.5.5 0 0 1 0-1c.564-.001 1.035.11 1.412.336.383.228.634.551.794.907.295.655.294 1.465.294 2.081v3.175a.5.5 0 0 1-.5.501H15v4.5a1.5 1.5 0 1 1-3 0V12a1 1 0 0 0-1-1v4h.5a.5.5 0 0 1 0 1H.5a.5.5 0 0 1 0-1H1V2Zm9 0a1 1 0 0 0-1-1H3a1 1 0 0 0-1 1v13h8V2Z"/>
    </symbol>
 <symbol id="icon-check" viewBox="0 0 16 16">
      <path fill="#101828" d="M8 15A7 7 0 1 1 8 1a7 7 0 0 1 0 14Zm0 1A8 8 0 1 0 8-.001 8 8 0 0 0 8 16Z"/>
      <path fill="#101828" d="m10.97 4.97-.02.022-3.473 4.425-2.093-2.094a.75.75 0 0 0-1.06 1.06L6.97 11.03a.75.75 0 0 0 1.079-.02l3.992-4.99a.75.75 0 0 0-1.071-1.05Z"/>
    </symbol>
</svg>
